<svg width="26" height="26" viewBox="0 0 26 26" fill="none" xmlns="http://www.w3.org/2000/svg">
<path d="M9.25 1.75H13V9.25H9.25C8.25544 9.25 7.30161 8.85491 6.59835 8.15165C5.89509 7.44839 5.5 6.49456 5.5 5.5C5.5 4.50544 5.89509 3.55161 6.59835 2.84835C7.30161 2.14509 8.25544 1.75 9.25 1.75Z" fill="#F4511E"/>
<path d="M16.75 9.25H13V1.75H16.75C17.7446 1.75 18.6984 2.14509 19.4016 2.84835C20.1049 3.55161 20.5 4.50544 20.5 5.5C20.5 6.49456 20.1049 7.44839 19.4016 8.15165C18.6984 8.85491 17.7446 9.25 16.75 9.25Z" fill="#FF8A65"/>
<path d="M13 13C13 15.0711 14.6789 16.75 16.75 16.75C18.8211 16.75 20.5 15.0711 20.5 13C20.5 10.9289 18.8211 9.25 16.75 9.25C14.6789 9.25 13 10.9289 13 13Z" fill="#29B6F6"/>
<path d="M9.25 9.25H13V16.75H9.25C8.25544 16.75 7.30161 16.3549 6.59835 15.6516C5.89509 14.9484 5.5 13.9946 5.5 13C5.5 12.0054 5.89509 11.0516 6.59835 10.3483C7.30161 9.64509 8.25544 9.25 9.25 9.25Z" fill="#7C4DFF"/>
<path d="M9.25 16.75H13V20.5C13 21.4946 12.6049 22.4484 11.9017 23.1516C11.1984 23.8549 10.2446 24.25 9.25 24.25C8.25544 24.25 7.30161 23.8549 6.59835 23.1516C5.89509 22.4484 5.5 21.4946 5.5 20.5C5.5 19.5054 5.89509 18.5516 6.59835 17.8484C7.30161 17.1451 8.25544 16.75 9.25 16.75Z" fill="#00E676"/>
</svg>
