<svg width="18" height="25" viewBox="0 0 18 25" fill="none" xmlns="http://www.w3.org/2000/svg">
<path d="M17.4458 4.83105L15.8592 22.6055L8.72715 24.5827L1.61478 22.6082L0.0297852 4.83105H17.4458Z" fill="#E44D26"/>
<path d="M8.73779 23.0712L14.5008 21.4735L15.8567 6.28442H8.73779V23.0712Z" fill="#F16529"/>
<path d="M5.65378 10.6451H8.73816V8.46484H3.271L3.32315 9.04977L3.85906 15.0581H8.73816V12.8778H5.85306L5.65378 10.6451ZM6.14518 16.1483H3.95648L4.26192 19.5717L8.72813 20.8115L8.73816 20.8087V18.5403L8.7286 18.5428L6.30042 17.8872L6.14518 16.1483Z" fill="#EBEBEB"/>
<path d="M1.65088 0H2.75888V1.09469H3.77247V0H4.88054V3.31499H3.77254V2.20494H2.75895V3.31499H1.65095L1.65088 0ZM6.33753 1.09933H5.36224V0H8.42164V1.09933H7.44574V3.31499H6.33773V1.09933H6.33753ZM8.90716 0H10.0625L10.7732 1.1648L11.4832 0H12.6389V3.31499H11.5354V1.6719L10.7732 2.85056H10.754L9.99127 1.6719V3.31499H8.90716V0ZM13.1903 0H14.2987V2.21928H15.8569V3.31499H13.1903L13.1903 0Z" fill="black"/>
<path d="M8.73005 15.0581H11.4149L11.1617 17.8858L8.72998 18.5421V20.8104L13.1997 19.5717L13.2325 19.2033L13.7449 13.4633L13.7981 12.8778H8.73005V15.0581ZM8.73005 10.6398V10.6451H13.9965L14.0402 10.1551L14.1396 9.04977L14.1917 8.46484H8.73005V10.6398Z" fill="white"/>
</svg>
