<svg width="607" height="149" viewBox="0 0 607 149" fill="none" xmlns="http://www.w3.org/2000/svg">
<path d="M204.588 139.2V51.6478H220.332L220.716 66.2398L219.052 65.4718C220.759 60.4372 223.532 56.6398 227.372 54.0798C231.298 51.4345 235.863 50.1118 241.068 50.1118C247.554 50.1118 252.93 51.7331 257.196 54.9758C261.548 58.2185 264.791 62.5278 266.924 67.9038C269.058 73.2798 270.124 79.2531 270.124 85.8238C270.124 92.3945 269.015 98.3678 266.796 103.744C264.663 109.12 261.42 113.429 257.068 116.672C252.802 119.914 247.426 121.536 240.94 121.536C237.527 121.536 234.327 120.938 231.34 119.744C228.439 118.549 225.922 116.842 223.788 114.624C221.74 112.405 220.29 109.802 219.436 106.816L220.972 105.536V139.2H204.588ZM237.1 108.224C242.05 108.224 245.932 106.261 248.748 102.336C251.65 98.3251 253.1 92.8211 253.1 85.8238C253.1 78.8265 251.65 73.3652 248.748 69.4398C245.932 65.4292 242.05 63.4238 237.1 63.4238C233.772 63.4238 230.914 64.2771 228.524 65.9838C226.135 67.6051 224.258 70.0798 222.892 73.4078C221.612 76.7358 220.972 80.8745 220.972 85.8238C220.972 90.7731 221.612 94.9118 222.892 98.2398C224.172 101.568 226.007 104.085 228.396 105.792C230.871 107.413 233.772 108.224 237.1 108.224Z" fill="black"/>
<path d="M167.205 121.536C174.032 121.536 179.963 120.085 184.997 117.184C190.032 114.197 193.915 110.016 196.645 104.64C199.376 99.2638 200.741 92.9918 200.741 85.8238C200.741 78.6558 199.376 72.4265 196.645 67.1358C193.915 61.7598 190.075 57.5785 185.125 54.5918C180.091 51.6051 174.245 50.1118 167.589 50.1118C161.104 50.1118 155.429 51.5625 150.565 54.4638C145.616 57.3651 141.819 61.5465 139.173 67.0078C136.528 72.4691 135.205 79.0398 135.205 86.7198V90.4318H183.717C183.376 96.4051 181.755 100.928 178.853 104C175.867 106.986 171.941 108.48 167.077 108.48C163.408 108.48 160.379 107.669 157.989 106.048C155.515 104.341 153.808 101.994 152.869 99.0078L136.101 100.032C137.979 106.688 141.691 111.936 147.237 115.776C152.699 119.616 159.355 121.536 167.205 121.536ZM183.717 79.4238H152.101C152.443 73.8771 154.021 69.7812 156.837 67.1358C159.653 64.4052 163.237 63.0398 167.589 63.0398C171.941 63.0398 175.568 64.4478 178.469 67.2638C181.285 70.0798 183.035 74.1331 183.717 79.4238Z" fill="black"/>
<path d="M103.326 121.536C96.4996 121.536 90.569 120.085 85.5343 117.184C80.4996 114.197 76.617 110.016 73.8863 104.64C71.1556 99.2638 69.7903 92.9918 69.7903 85.8238C69.7903 78.6558 71.1556 72.4265 73.8863 67.1358C76.617 61.7598 80.457 57.5785 85.4063 54.5918C90.441 51.6051 96.2863 50.1118 102.942 50.1118C109.428 50.1118 115.102 51.5625 119.966 54.4638C124.916 57.3651 128.713 61.5465 131.358 67.0078C134.004 72.4691 135.326 79.0398 135.326 86.7198V90.4318H86.8143C87.1556 96.4051 88.777 100.928 91.6783 104C94.6649 106.986 98.5903 108.48 103.454 108.48C107.124 108.48 110.153 107.669 112.542 106.048C115.017 104.341 116.724 101.994 117.662 99.0078L134.43 100.032C132.553 106.688 128.841 111.936 123.294 115.776C117.833 119.616 111.177 121.536 103.326 121.536ZM86.8143 79.4238H118.43C118.089 73.8771 116.51 69.7812 113.694 67.1358C110.878 64.4052 107.294 63.0398 102.942 63.0398C98.5903 63.0398 94.9636 64.4478 92.0623 67.2638C89.2463 70.0798 87.497 74.1331 86.8143 79.4238Z" fill="black"/>
<path d="M28.788 121.536C22.9853 121.536 17.9507 120.085 13.684 117.184C9.50267 114.283 6.26 110.144 3.956 104.768C1.652 99.3921 0.5 93.0775 0.5 85.8241C0.5 78.5708 1.652 72.2561 3.956 66.8801C6.26 61.5041 9.54533 57.3655 13.812 54.4641C18.0787 51.5628 23.0707 50.1121 28.788 50.1121C33.5667 50.1121 37.748 51.0935 41.332 53.0561C45.0013 55.0188 47.7747 57.7921 49.652 61.3761V29.1201H66.036V120H50.42L50.036 109.888C48.1587 113.557 45.3427 116.416 41.588 118.464C37.8333 120.512 33.5667 121.536 28.788 121.536ZM33.78 108.224C37.1933 108.224 40.052 107.371 42.356 105.664C44.7453 103.957 46.5373 101.44 47.732 98.1121C49.012 94.6988 49.652 90.6028 49.652 85.8241C49.652 80.9601 49.012 76.8641 47.732 73.5361C46.5373 70.2081 44.7453 67.6908 42.356 65.9841C40.052 64.2774 37.1933 63.4241 33.78 63.4241C28.8307 63.4241 24.8627 65.4295 21.876 69.4401C18.9747 73.3655 17.524 78.8268 17.524 85.8241C17.524 92.6508 18.9747 98.1121 21.876 102.208C24.8627 106.219 28.8307 108.224 33.78 108.224Z" fill="black"/>
<path d="M319.94 113.24C324.676 113.24 330.308 105.176 334.66 95.832H337.604C332.996 107.224 324.548 120.152 314.18 120.152C307.396 120.152 305.092 116.568 305.092 111.96C305.092 109.016 306.372 105.944 308.164 100.696L312.9 86.744H311.108C304.964 100.184 293.316 120.792 281.924 120.792C274.372 120.792 270.404 113.624 270.404 103.64C270.404 80.856 291.012 49.368 308.804 49.368C317.38 49.368 320.708 55.64 320.324 63.832H320.58L332.228 29.272C334.66 22.104 331.972 19.544 323.012 19.544L323.78 16.6C338.244 16.6 344.26 15.704 347.588 12.888L349.124 13.784L320.196 101.08C319.172 104.024 317.636 108.504 317.636 110.296C317.636 112.216 318.148 113.24 319.94 113.24ZM287.3 111.576C294.852 111.576 308.292 91.352 313.284 77.016C314.692 72.92 315.716 68.824 315.716 64.6C315.716 59.096 314.18 55.896 309.956 55.896C298.564 55.896 283.076 83.928 283.076 102.104C283.076 108.12 284.228 111.576 287.3 111.576ZM354.859 112.6C362.411 112.6 369.579 104.664 375.979 91.736H378.795C371.627 109.4 361.387 120.792 349.227 120.792C339.115 120.792 332.459 113.752 332.459 101.08C332.459 79.32 351.019 49.24 369.835 49.24C377.387 49.24 382.123 53.976 382.123 60.888C382.123 75.224 364.075 87.256 346.411 89.944C345.643 93.656 345.259 97.24 345.259 100.312C345.259 108.632 349.099 112.6 354.859 112.6ZM369.067 54.104C359.979 54.104 351.275 70.744 347.435 85.848C361.131 82.392 373.291 71.896 373.291 59.992C373.291 56.28 372.267 54.104 369.067 54.104ZM390.987 120.792C380.875 120.792 372.299 114.648 372.299 107.608C372.299 104.152 374.731 101.848 377.803 101.848C380.363 101.848 381.259 103.512 382.539 107.096C384.843 113.112 387.787 116.184 393.035 116.184C398.923 116.184 401.867 111.832 401.867 105.816C401.867 100.952 399.563 97.24 396.363 92.76L392.907 87.384C388.171 80.344 385.355 75.736 385.355 69.336C385.355 57.304 395.723 48.984 408.011 48.984C418.251 48.984 423.243 54.872 423.243 59.224C423.243 62.68 420.555 64.984 417.739 64.984C415.051 64.984 414.027 62.936 413.131 59.864C411.851 56.28 409.931 53.464 404.939 53.464C399.819 53.464 395.979 56.92 395.979 63.192C395.979 67.672 398.283 72.152 401.739 77.144L404.939 82.392C409.803 89.944 412.491 94.04 412.491 100.184C412.491 111.832 403.275 120.792 390.987 120.792ZM446.962 36.568C442.098 36.568 438.77 33.368 438.77 28.632C438.77 23.768 442.098 20.696 446.962 20.696C451.826 20.696 455.154 23.768 455.154 28.632C455.154 33.368 451.826 36.568 446.962 36.568ZM419.57 100.824L430.578 69.848C432.114 65.624 433.906 60.376 433.906 58.584C433.906 56.92 433.266 56.408 432.242 56.408C428.402 56.408 422.77 63.192 417.906 71.256H414.834C420.722 59.864 430.322 49.624 439.666 49.624C444.274 49.624 446.45 52.952 446.45 56.664C446.45 59.992 444.786 64.472 442.738 70.104L431.602 101.208C430.578 104.024 428.914 108.504 428.914 110.296C428.914 112.216 429.426 113.24 431.218 113.24C435.954 113.24 441.714 105.176 445.938 95.832H448.882C444.274 107.224 435.954 120.152 425.458 120.152C418.674 120.152 416.37 116.568 416.37 111.96C416.37 109.016 417.778 105.944 419.57 100.824ZM503.885 48.984C507.341 48.984 509.005 50.008 509.005 52.184C509.005 54.488 507.341 57.176 503.885 57.176C500.685 57.176 497.869 55 494.413 55C493.773 55 493.005 55.128 492.237 55.384C494.669 58.456 496.077 62.68 496.077 67.672C496.077 83.032 485.069 97.624 470.349 99.288C461.133 100.44 455.757 102.36 455.757 105.688C455.757 108.376 458.317 110.168 466.509 112.984L478.541 117.336C489.293 121.048 492.877 124.504 492.877 130.52C492.877 142.04 477.261 148.568 458.829 148.568C438.349 148.568 426.317 140.888 426.317 132.824C426.317 124.888 436.301 120.792 451.277 119.128C446.413 116.952 443.213 114.136 443.213 110.68C443.213 103.512 453.965 100.056 462.541 98.776C454.989 96.6 449.997 89.816 449.997 80.856C449.997 64.6 463.053 49.24 478.797 49.24C483.405 49.24 487.501 50.776 490.445 53.336C494.797 50.52 500.173 48.984 503.885 48.984ZM467.789 95.064C477.645 95.064 485.197 78.296 485.197 64.984C485.197 57.816 483.149 53.464 478.285 53.464C468.301 53.464 460.749 70.488 460.749 83.544C460.749 90.712 462.797 95.064 467.789 95.064ZM473.549 127.32L457.421 121.688C456.909 121.432 456.269 121.304 455.757 121.048C443.341 122.712 436.045 126.424 436.045 132.184C436.045 139.352 447.437 143.704 461.389 143.704C475.341 143.704 482.253 139.608 482.253 134.36C482.253 131.288 479.053 129.112 473.549 127.32ZM507.181 119H494.637L511.533 69.848C513.069 65.624 514.861 60.376 514.861 58.584C514.861 56.92 514.221 56.408 513.197 56.408C509.357 56.408 503.725 63.192 498.861 71.256H495.789C501.677 59.864 511.277 49.624 520.621 49.624C525.229 49.624 527.405 52.952 527.405 56.664C527.405 59.992 525.485 64.472 523.309 69.976L515.757 90.456H517.037C530.477 62.168 540.205 49.368 550.573 49.368C556.461 49.368 559.661 53.208 559.661 58.712C559.661 68.056 550.317 86.488 544.045 101.208C543.021 104.152 541.101 108.504 541.101 110.296C541.101 112.216 541.613 113.24 543.405 113.24C548.141 113.24 553.901 105.176 558.125 95.832H561.197C556.461 107.224 548.141 120.152 537.645 120.152C530.989 120.152 528.685 116.568 528.685 111.96C528.685 109.016 530.349 106.072 532.397 100.696C539.309 83.544 546.349 67.672 546.349 62.552C546.349 59.736 545.581 58.456 543.661 58.456C538.669 58.456 525.997 71 507.181 119ZM571.772 120.792C561.66 120.792 553.084 114.648 553.084 107.608C553.084 104.152 555.516 101.848 558.588 101.848C561.148 101.848 562.044 103.512 563.324 107.096C565.628 113.112 568.572 116.184 573.82 116.184C579.708 116.184 582.652 111.832 582.652 105.816C582.652 100.952 580.348 97.24 577.148 92.76L573.692 87.384C568.956 80.344 566.14 75.736 566.14 69.336C566.14 57.304 576.508 48.984 588.796 48.984C599.036 48.984 604.028 54.872 604.028 59.224C604.028 62.68 601.34 64.984 598.524 64.984C595.836 64.984 594.812 62.936 593.916 59.864C592.636 56.28 590.716 53.464 585.724 53.464C580.604 53.464 576.764 56.92 576.764 63.192C576.764 67.672 579.068 72.152 582.524 77.144L585.724 82.392C590.588 89.944 593.276 94.04 593.276 100.184C593.276 111.832 584.06 120.792 571.772 120.792Z" fill="black"/>
</svg>
