<svg width="166" height="198" viewBox="0 0 166 198" fill="none" xmlns="http://www.w3.org/2000/svg">
<path d="M76.9983 181.927L74.0047 164.949L66.459 166.28L63.798 151.189L56.2523 152.519L53.5913 137.428L46.0456 138.758L43.052 121.78L33.6199 123.444L32.2894 115.898L24.7437 117.228L22.0827 102.137L39.0605 99.1434L40.391 106.689L47.9366 105.359L51.9282 127.996L59.4738 126.665L41.512 24.7985L56.6033 22.1375L69.2432 93.8214L76.7888 92.4909L71.1342 60.4218L88.1119 57.4281L93.7666 89.4972L101.312 88.1667L96.9881 63.6433L112.079 60.9823L117.734 93.0514L125.28 91.7209L120.956 67.1974L130.388 65.5343L132.051 74.9664L139.597 73.6359L149.243 128.342L141.697 129.673L145.689 152.31L136.256 153.973L139.25 170.95L76.9983 181.927Z" fill="#FEFEFE"/>
<path d="M70.7833 190.805L66.4592 166.282L58.9135 167.612L56.2525 152.521L48.7068 153.851L46.0458 138.76L36.6137 140.423L33.6201 123.445L26.0744 124.776L24.7439 117.23L17.1982 118.561L13.2067 95.9237L37.7302 91.5995L39.0607 99.1452L46.6063 97.8147L33.9665 26.1308L41.5122 24.8003L40.1817 17.2546L55.273 14.5936L56.6036 22.1393L64.1492 20.8087L69.8039 52.8779L86.7816 49.8842L88.1122 57.4299L110.749 53.4384L112.08 60.9841L129.057 57.9904L130.388 65.5361L137.934 64.2056L139.597 73.6377L147.142 72.3072L156.789 127.013L149.243 128.344L153.234 150.981L145.689 152.311L150.013 176.835L70.7833 190.805ZM139.25 170.952L136.257 153.974L145.689 152.311L141.697 129.674L149.243 128.344L139.597 73.6377L132.051 74.9682L130.388 65.5361L120.956 67.1992L125.28 91.7227L117.734 93.0532L112.08 60.9841L96.9883 63.6451L101.312 88.1685L93.7668 89.499L88.1122 57.4299L71.1344 60.4235L76.789 92.4927L69.2434 93.8232L56.6036 22.1393L41.5122 24.8003L59.474 126.667L51.9284 127.997L47.9368 105.36L40.3912 106.691L39.0607 99.1452L22.0829 102.139L24.7439 117.23L32.2896 115.9L33.6201 123.445L43.0522 121.782L46.0458 138.76L53.5915 137.429L56.2525 152.521L63.7982 151.19L66.4592 166.282L74.0049 164.951L76.9985 181.929L139.25 170.952Z" fill="black"/>
</svg>
