<svg width="20" height="20" viewBox="0 0 20 20" fill="none" xmlns="http://www.w3.org/2000/svg">
<g clip-path="url(#clip0_150_193)">
<path d="M11.8148 9.80917C11.8148 8.94853 11.0952 8.25073 10.2074 8.25073C9.3198 8.25073 8.6001 8.94853 8.6001 9.80917C8.6001 10.6699 9.3198 11.3677 10.2074 11.3677C11.0952 11.3677 11.8148 10.6699 11.8148 9.80917Z" fill="#53C1DE"/>
<path fill-rule="evenodd" clip-rule="evenodd" d="M15.4278 6.91566C15.7672 5.57831 16.1938 3.09832 14.6898 2.25753C13.1927 1.42041 11.2446 3.02449 10.2159 3.98734C9.19016 3.03409 7.1873 1.43686 5.6845 2.28032C4.18803 3.12025 4.6495 5.55912 4.99646 6.90486C3.60051 7.28928 1.20752 8.11728 1.20752 9.80898C1.20752 11.4959 3.59802 12.3967 4.98571 12.7808C4.63747 14.134 4.1991 16.538 5.69748 17.3761C7.2059 18.2194 9.20252 16.6601 10.2408 15.6868C11.2761 16.6553 13.2055 18.2247 14.7028 17.3843C16.2049 16.5412 15.8137 14.0945 15.4667 12.7409C16.8119 12.356 19.2075 11.4748 19.2075 9.80898C19.2075 8.13354 16.8017 7.29882 15.4278 6.91566ZM15.2572 12.0236C15.0294 11.3244 14.7219 10.5808 14.3458 9.8127C14.7048 9.0627 15.0004 8.32872 15.2218 7.63398C16.2291 7.91712 18.4386 8.56422 18.4386 9.80898C18.4386 11.0654 16.3183 11.7187 15.2572 12.0236ZM14.3175 16.739C13.2003 17.366 11.5408 15.8652 10.7762 15.152C11.2834 14.6141 11.7903 13.9888 12.285 13.2944C13.1553 13.2196 13.9773 13.0972 14.7229 12.9301C14.9671 13.8875 15.4396 16.1092 14.3175 16.739ZM6.08169 16.7301C4.96438 16.1054 5.47507 13.9602 5.73126 12.9634C6.46852 13.1216 7.28468 13.2353 8.15696 13.3039C8.6549 13.9834 9.17648 14.6079 9.70208 15.1549C9.0527 15.7639 7.20422 17.3576 6.08169 16.7301ZM1.97641 9.80898C1.97641 8.54784 4.17276 7.90542 5.20294 7.623C5.42823 8.33334 5.72369 9.07608 6.08026 9.82716C5.71907 10.5894 5.41938 11.3439 5.19203 12.0626C4.20973 11.79 1.97641 11.0709 1.97641 9.80898ZM6.06974 2.92556C7.19162 2.29593 8.93234 3.82933 9.67706 4.51951C9.15416 5.06396 8.63738 5.6838 8.1437 6.35934C7.29716 6.43542 6.48677 6.55758 5.74177 6.72126C5.46227 5.63586 4.94907 3.55451 6.06974 2.92556ZM12.8351 7.1697C13.4094 7.23996 13.9597 7.33344 14.4763 7.4478C14.3212 7.92984 14.1279 8.4339 13.9002 8.95062C13.5702 8.34342 13.2159 7.7484 12.8351 7.1697ZM10.2161 5.0523C10.5708 5.42482 10.926 5.84082 11.2754 6.29214C10.5666 6.25962 9.8567 6.2595 9.14792 6.29166C9.49766 5.84452 9.85592 5.42915 10.2161 5.0523ZM6.52142 8.95008C6.29749 8.43516 6.10591 7.92888 5.94945 7.43994C6.46303 7.32852 7.01072 7.23744 7.58132 7.16832C7.19948 7.74576 6.84578 8.34054 6.52142 8.95008ZM7.5977 12.5029C7.00826 12.4391 6.45228 12.3526 5.93886 12.2443C6.09778 11.7467 6.29359 11.2295 6.5223 10.7035C6.85112 11.3194 7.21022 11.92 7.5977 12.5029ZM10.2374 14.6183C9.87296 14.237 9.50942 13.8153 9.1544 13.3617C9.8672 13.3888 10.5814 13.3889 11.2941 13.358C10.9436 13.8199 10.5897 14.2423 10.2374 14.6183ZM13.9075 10.6768C14.1481 11.2085 14.3509 11.7229 14.512 12.212C13.9901 12.3275 13.4266 12.4205 12.8329 12.4895C13.2165 11.8999 13.5765 11.2956 13.9075 10.6768ZM11.8559 12.5799C10.7656 12.6554 9.66848 12.6546 8.5778 12.5861C7.95806 11.7083 7.40636 10.7852 6.93014 9.82692C7.40408 8.87058 7.95176 7.94928 8.56856 7.07292C9.66002 6.99294 10.7582 6.9927 11.8497 7.0734C12.4612 7.9497 13.008 8.8686 13.4929 9.8163C13.0138 10.7722 12.4632 11.6953 11.8559 12.5799ZM14.3057 2.9034C15.4279 3.53096 14.9284 5.75979 14.6832 6.729C13.9365 6.5619 13.1255 6.43758 12.2765 6.3603C11.7819 5.67746 11.2694 5.05654 10.755 4.51913C11.5092 3.81408 13.1944 2.28197 14.3057 2.9034Z" fill="#53C1DE"/>
</g>
<defs>
<clipPath id="clip0_150_193">
<rect width="19.2" height="19.2" fill="white" transform="translate(0.607422 0.223389)"/>
</clipPath>
</defs>
</svg>
