<svg width="18" height="24" viewBox="0 0 18 24" fill="none" xmlns="http://www.w3.org/2000/svg">
<path d="M8.49953 23.9393L1.5733 22.0165L0.0297852 4.70459H16.99L15.4449 22.0138L8.49953 23.9393Z" fill="#264DE4"/>
<path d="M14.122 20.9117L15.4423 6.12012H8.50977V22.4676L14.122 20.9117Z" fill="#2965F1"/>
<path d="M3.56844 12.5409L3.75871 14.6641H8.51011V12.5409H3.56844ZM3.18604 8.24341L3.37903 10.3666H8.51011V8.24341H3.18604ZM8.51011 18.0552L8.50081 18.0576L6.13617 17.4191L5.98499 15.7258H3.85358L4.15102 19.0596L8.50034 20.2669L8.51011 20.2642V18.0552Z" fill="#EBEBEB"/>
<path d="M4.02148 0H6.59301V1.07541H5.0969V2.15083H6.59314V3.22617H4.02148V0ZM7.10738 0H9.67897V0.935136H8.18279V1.12215H9.67897V3.27297H7.10745V2.29097H8.60362V2.10396H7.10731L7.10738 0ZM10.1933 0H12.7649V0.935136H11.2688V1.12215H12.7649V3.27297H10.1933V2.29097H11.6895V2.10396H10.1934L10.1933 0Z" fill="black"/>
<path d="M13.4379 12.5409L13.8212 8.24341H8.50251V10.3666H11.4943L11.3011 12.5409H8.50251V14.6641H11.117L10.8705 17.4178L8.50244 18.0569V20.2659L12.8552 19.0596L12.8871 18.7008L13.3861 13.111L13.4379 12.5409Z" fill="white"/>
</svg>
