<svg width="32" height="32" viewBox="0 0 32 32" fill="none" xmlns="http://www.w3.org/2000/svg">
<rect width="32" height="32" rx="4" fill="white"/>
<path d="M22.9305 15.7498V7.1998H24.468L24.5055 8.6248L24.343 8.5498C24.5097 8.05814 24.7805 7.6873 25.1555 7.4373C25.5388 7.17897 25.9847 7.0498 26.493 7.0498C27.1263 7.0498 27.6513 7.20814 28.068 7.5248C28.493 7.84147 28.8097 8.2623 29.018 8.7873C29.2263 9.3123 29.3305 9.89564 29.3305 10.5373C29.3305 11.179 29.2222 11.7623 29.0055 12.2873C28.7972 12.8123 28.4805 13.2331 28.0555 13.5498C27.6388 13.8665 27.1138 14.0248 26.4805 14.0248C26.1472 14.0248 25.8347 13.9665 25.543 13.8498C25.2597 13.7331 25.0138 13.5665 24.8055 13.3498C24.6055 13.1331 24.4638 12.879 24.3805 12.5873L24.5305 12.4623V15.7498H22.9305ZM26.1055 12.7248C26.5888 12.7248 26.968 12.5331 27.243 12.1498C27.5263 11.7581 27.668 11.2206 27.668 10.5373C27.668 9.85397 27.5263 9.32064 27.243 8.9373C26.968 8.54564 26.5888 8.3498 26.1055 8.3498C25.7805 8.3498 25.5013 8.43314 25.268 8.5998C25.0347 8.75814 24.8513 8.9998 24.718 9.3248C24.593 9.6498 24.5305 10.054 24.5305 10.5373C24.5305 11.0206 24.593 11.4248 24.718 11.7498C24.843 12.0748 25.0222 12.3206 25.2555 12.4873C25.4972 12.6456 25.7805 12.7248 26.1055 12.7248Z" fill="black"/>
<path d="M19.2798 14.0248C19.9465 14.0248 20.5256 13.8831 21.0173 13.5998C21.509 13.3081 21.8881 12.8998 22.1548 12.3748C22.4215 11.8498 22.5548 11.2373 22.5548 10.5373C22.5548 9.8373 22.4215 9.22897 22.1548 8.7123C21.8881 8.1873 21.5131 7.77897 21.0298 7.4873C20.5381 7.19564 19.9673 7.0498 19.3173 7.0498C18.684 7.0498 18.1298 7.19147 17.6548 7.4748C17.1715 7.75814 16.8006 8.16647 16.5423 8.6998C16.284 9.23314 16.1548 9.8748 16.1548 10.6248V10.9873H20.8923C20.859 11.5706 20.7006 12.0123 20.4173 12.3123C20.1256 12.604 19.7423 12.7498 19.2673 12.7498C18.909 12.7498 18.6131 12.6706 18.3798 12.5123C18.1381 12.3456 17.9715 12.1165 17.8798 11.8248L16.2423 11.9248C16.4256 12.5748 16.7881 13.0873 17.3298 13.4623C17.8631 13.8373 18.5131 14.0248 19.2798 14.0248ZM20.8923 9.9123H17.8048C17.8381 9.37064 17.9923 8.97064 18.2673 8.7123C18.5423 8.44564 18.8923 8.3123 19.3173 8.3123C19.7423 8.3123 20.0965 8.4498 20.3798 8.7248C20.6548 8.9998 20.8256 9.39564 20.8923 9.9123Z" fill="black"/>
<path d="M13.0416 14.0248C12.375 14.0248 11.7958 13.8831 11.3041 13.5998C10.8125 13.3081 10.4333 12.8998 10.1666 12.3748C9.89998 11.8498 9.76665 11.2373 9.76665 10.5373C9.76665 9.8373 9.89998 9.22897 10.1666 8.7123C10.4333 8.1873 10.8083 7.77897 11.2916 7.4873C11.7833 7.19564 12.3541 7.0498 13.0041 7.0498C13.6375 7.0498 14.1916 7.19147 14.6666 7.4748C15.15 7.75814 15.5208 8.16647 15.7791 8.6998C16.0375 9.23314 16.1666 9.8748 16.1666 10.6248V10.9873H11.4291C11.4625 11.5706 11.6208 12.0123 11.9041 12.3123C12.1958 12.604 12.5791 12.7498 13.0541 12.7498C13.4125 12.7498 13.7083 12.6706 13.9416 12.5123C14.1833 12.3456 14.35 12.1165 14.4416 11.8248L16.0791 11.9248C15.8958 12.5748 15.5333 13.0873 14.9916 13.4623C14.4583 13.8373 13.8083 14.0248 13.0416 14.0248ZM11.4291 9.9123H14.5166C14.4833 9.37064 14.3291 8.97064 14.0541 8.7123C13.7791 8.44564 13.4291 8.3123 13.0041 8.3123C12.5791 8.3123 12.225 8.4498 11.9416 8.7248C11.6666 8.9998 11.4958 9.39564 11.4291 9.9123Z" fill="black"/>
<path d="M5.76252 14.025C5.19585 14.025 4.70418 13.8833 4.28752 13.6C3.87918 13.3167 3.56252 12.9125 3.33752 12.3875C3.11252 11.8625 3.00002 11.2458 3.00002 10.5375C3.00002 9.82917 3.11252 9.2125 3.33752 8.6875C3.56252 8.1625 3.88335 7.75833 4.30002 7.475C4.71668 7.19167 5.20418 7.05 5.76252 7.05C6.22918 7.05 6.63752 7.14583 6.98752 7.3375C7.34585 7.52917 7.61668 7.8 7.80002 8.15V5H9.40002V13.875H7.87502L7.83752 12.8875C7.65418 13.2458 7.37918 13.525 7.01252 13.725C6.64585 13.925 6.22918 14.025 5.76252 14.025ZM6.25002 12.725C6.58335 12.725 6.86252 12.6417 7.08752 12.475C7.32085 12.3083 7.49585 12.0625 7.61252 11.7375C7.73752 11.4042 7.80002 11.0042 7.80002 10.5375C7.80002 10.0625 7.73752 9.6625 7.61252 9.3375C7.49585 9.0125 7.32085 8.76667 7.08752 8.6C6.86252 8.43333 6.58335 8.35 6.25002 8.35C5.76668 8.35 5.37918 8.54583 5.08752 8.9375C4.80418 9.32083 4.66252 9.85417 4.66252 10.5375C4.66252 11.2042 4.80418 11.7375 5.08752 12.1375C5.37918 12.5292 5.76668 12.725 6.25002 12.725Z" fill="black"/>
<path d="M6.94 24.2995C7.31 24.2995 7.75 23.6695 8.09 22.9395H8.32C7.96 23.8295 7.3 24.8395 6.49 24.8395C5.96 24.8395 5.78 24.5595 5.78 24.1995C5.78 23.9695 5.88 23.7295 6.02 23.3195L6.39 22.2295H6.25C5.77 23.2795 4.86 24.8895 3.97 24.8895C3.38 24.8895 3.07 24.3295 3.07 23.5495C3.07 21.7695 4.68 19.3095 6.07 19.3095C6.74 19.3095 7 19.7995 6.97 20.4395H6.99L7.9 17.7395C8.09 17.1795 7.88 16.9795 7.18 16.9795L7.24 16.7495C8.37 16.7495 8.84 16.6795 9.1 16.4595L9.22 16.5295L6.96 23.3495C6.88 23.5795 6.76 23.9295 6.76 24.0695C6.76 24.2195 6.8 24.2995 6.94 24.2995ZM4.39 24.1695C4.98 24.1695 6.03 22.5895 6.42 21.4695C6.53 21.1495 6.61 20.8295 6.61 20.4995C6.61 20.0695 6.49 19.8195 6.16 19.8195C5.27 19.8195 4.06 22.0095 4.06 23.4295C4.06 23.8995 4.15 24.1695 4.39 24.1695ZM9.66805 24.2495C10.258 24.2495 10.818 23.6295 11.318 22.6195H11.538C10.978 23.9995 10.178 24.8895 9.22805 24.8895C8.43805 24.8895 7.91805 24.3395 7.91805 23.3495C7.91805 21.6495 9.36805 19.2995 10.838 19.2995C11.428 19.2995 11.798 19.6695 11.798 20.2095C11.798 21.3295 10.388 22.2695 9.00805 22.4795C8.94805 22.7695 8.91805 23.0495 8.91805 23.2895C8.91805 23.9395 9.21805 24.2495 9.66805 24.2495ZM10.778 19.6795C10.068 19.6795 9.38805 20.9795 9.08805 22.1595C10.158 21.8895 11.108 21.0695 11.108 20.1395C11.108 19.8495 11.028 19.6795 10.778 19.6795ZM12.4905 24.8895C11.7005 24.8895 11.0305 24.4095 11.0305 23.8595C11.0305 23.5895 11.2205 23.4095 11.4605 23.4095C11.6605 23.4095 11.7305 23.5395 11.8305 23.8195C12.0105 24.2895 12.2405 24.5295 12.6505 24.5295C13.1105 24.5295 13.3405 24.1895 13.3405 23.7195C13.3405 23.3395 13.1605 23.0495 12.9105 22.6995L12.6405 22.2795C12.2705 21.7295 12.0505 21.3695 12.0505 20.8695C12.0505 19.9295 12.8605 19.2795 13.8205 19.2795C14.6205 19.2795 15.0105 19.7395 15.0105 20.0795C15.0105 20.3495 14.8005 20.5295 14.5805 20.5295C14.3705 20.5295 14.2905 20.3695 14.2205 20.1295C14.1205 19.8495 13.9705 19.6295 13.5805 19.6295C13.1805 19.6295 12.8805 19.8995 12.8805 20.3895C12.8805 20.7395 13.0605 21.0895 13.3305 21.4795L13.5805 21.8895C13.9605 22.4795 14.1705 22.7995 14.1705 23.2795C14.1705 24.1895 13.4505 24.8895 12.4905 24.8895ZM16.8636 18.3095C16.4836 18.3095 16.2236 18.0595 16.2236 17.6895C16.2236 17.3095 16.4836 17.0695 16.8636 17.0695C17.2436 17.0695 17.5036 17.3095 17.5036 17.6895C17.5036 18.0595 17.2436 18.3095 16.8636 18.3095ZM14.7236 23.3295L15.5836 20.9095C15.7036 20.5795 15.8436 20.1695 15.8436 20.0295C15.8436 19.8995 15.7936 19.8595 15.7136 19.8595C15.4136 19.8595 14.9736 20.3895 14.5936 21.0195H14.3536C14.8136 20.1295 15.5636 19.3295 16.2936 19.3295C16.6536 19.3295 16.8236 19.5895 16.8236 19.8795C16.8236 20.1395 16.6936 20.4895 16.5336 20.9295L15.6636 23.3595C15.5836 23.5795 15.4536 23.9295 15.4536 24.0695C15.4536 24.2195 15.4936 24.2995 15.6336 24.2995C16.0036 24.2995 16.4536 23.6695 16.7836 22.9395H17.0136C16.6536 23.8295 16.0036 24.8395 15.1836 24.8395C14.6536 24.8395 14.4736 24.5595 14.4736 24.1995C14.4736 23.9695 14.5836 23.7295 14.7236 23.3295ZM21.3107 19.2795C21.5807 19.2795 21.7107 19.3595 21.7107 19.5295C21.7107 19.7095 21.5807 19.9195 21.3107 19.9195C21.0607 19.9195 20.8407 19.7495 20.5707 19.7495C20.5207 19.7495 20.4607 19.7595 20.4007 19.7795C20.5907 20.0195 20.7007 20.3495 20.7007 20.7395C20.7007 21.9395 19.8407 23.0795 18.6907 23.2095C17.9707 23.2995 17.5507 23.4495 17.5507 23.7095C17.5507 23.9195 17.7507 24.0595 18.3907 24.2795L19.3307 24.6195C20.1707 24.9095 20.4507 25.1795 20.4507 25.6495C20.4507 26.5495 19.2307 27.0595 17.7907 27.0595C16.1907 27.0595 15.2507 26.4595 15.2507 25.8295C15.2507 25.2095 16.0307 24.8895 17.2007 24.7595C16.8207 24.5895 16.5707 24.3695 16.5707 24.0995C16.5707 23.5395 17.4107 23.2695 18.0807 23.1695C17.4907 22.9995 17.1007 22.4695 17.1007 21.7695C17.1007 20.4995 18.1207 19.2995 19.3507 19.2995C19.7107 19.2995 20.0307 19.4195 20.2607 19.6195C20.6007 19.3995 21.0207 19.2795 21.3107 19.2795ZM18.4907 22.8795C19.2607 22.8795 19.8507 21.5695 19.8507 20.5295C19.8507 19.9695 19.6907 19.6295 19.3107 19.6295C18.5307 19.6295 17.9407 20.9595 17.9407 21.9795C17.9407 22.5395 18.1007 22.8795 18.4907 22.8795ZM18.9407 25.3995L17.6807 24.9595C17.6407 24.9395 17.5907 24.9295 17.5507 24.9095C16.5807 25.0395 16.0107 25.3295 16.0107 25.7795C16.0107 26.3395 16.9007 26.6795 17.9907 26.6795C19.0807 26.6795 19.6207 26.3595 19.6207 25.9495C19.6207 25.7095 19.3707 25.5395 18.9407 25.3995ZM21.5682 24.7495H20.5882L21.9082 20.9095C22.0282 20.5795 22.1682 20.1695 22.1682 20.0295C22.1682 19.8995 22.1182 19.8595 22.0382 19.8595C21.7382 19.8595 21.2982 20.3895 20.9182 21.0195H20.6782C21.1382 20.1295 21.8882 19.3295 22.6182 19.3295C22.9782 19.3295 23.1482 19.5895 23.1482 19.8795C23.1482 20.1395 22.9982 20.4895 22.8282 20.9195L22.2382 22.5195H22.3382C23.3882 20.3095 24.1482 19.3095 24.9582 19.3095C25.4182 19.3095 25.6682 19.6095 25.6682 20.0395C25.6682 20.7695 24.9382 22.2095 24.4482 23.3595C24.3682 23.5895 24.2182 23.9295 24.2182 24.0695C24.2182 24.2195 24.2582 24.2995 24.3982 24.2995C24.7682 24.2995 25.2182 23.6695 25.5482 22.9395H25.7882C25.4182 23.8295 24.7682 24.8395 23.9482 24.8395C23.4282 24.8395 23.2482 24.5595 23.2482 24.1995C23.2482 23.9695 23.3782 23.7395 23.5382 23.3195C24.0782 21.9795 24.6282 20.7395 24.6282 20.3395C24.6282 20.1195 24.5682 20.0195 24.4182 20.0195C24.0282 20.0195 23.0382 20.9995 21.5682 24.7495ZM26.6144 24.8895C25.8244 24.8895 25.1544 24.4095 25.1544 23.8595C25.1544 23.5895 25.3444 23.4095 25.5844 23.4095C25.7844 23.4095 25.8544 23.5395 25.9544 23.8195C26.1344 24.2895 26.3644 24.5295 26.7744 24.5295C27.2344 24.5295 27.4644 24.1895 27.4644 23.7195C27.4644 23.3395 27.2844 23.0495 27.0344 22.6995L26.7644 22.2795C26.3944 21.7295 26.1744 21.3695 26.1744 20.8695C26.1744 19.9295 26.9844 19.2795 27.9444 19.2795C28.7444 19.2795 29.1344 19.7395 29.1344 20.0795C29.1344 20.3495 28.9244 20.5295 28.7044 20.5295C28.4944 20.5295 28.4144 20.3695 28.3444 20.1295C28.2444 19.8495 28.0944 19.6295 27.7044 19.6295C27.3044 19.6295 27.0044 19.8995 27.0044 20.3895C27.0044 20.7395 27.1844 21.0895 27.4544 21.4795L27.7044 21.8895C28.0844 22.4795 28.2944 22.7995 28.2944 23.2795C28.2944 24.1895 27.5744 24.8895 26.6144 24.8895Z" fill="black"/>
</svg>
