<svg width="16" height="16" viewBox="0 0 16 16" fill="none" xmlns="http://www.w3.org/2000/svg">
<path d="M12.25 0H3.75C1.67893 0 0 1.67893 0 3.75V12.25C0 14.3211 1.67893 16 3.75 16H12.25C14.3211 16 16 14.3211 16 12.25V3.75C16 1.67893 14.3211 0 12.25 0Z" fill="#F0DB4F"/>
<path d="M4.20709 13.3707L5.43147 12.6297C5.66772 13.0485 5.88259 13.4029 6.39803 13.4029C6.89209 13.4029 7.20359 13.2096 7.20359 12.4579V7.34552H8.70722V12.4791C8.70722 14.0365 7.79434 14.7453 6.46247 14.7453C5.25966 14.7453 4.56147 14.1224 4.20703 13.3706M9.52391 13.2096L10.7482 12.5008C11.0705 13.0271 11.4893 13.4137 12.2303 13.4137C12.8534 13.4137 13.2507 13.1022 13.2507 12.6726C13.2507 12.1571 12.8425 11.9745 12.1552 11.6738L11.7793 11.5126C10.6945 11.0509 9.97491 10.4709 9.97491 9.24652C9.97491 8.11877 10.8342 7.25952 12.1767 7.25952C13.1326 7.25952 13.82 7.59252 14.314 8.46246L13.1433 9.21427C12.8855 8.75246 12.6063 8.5699 12.1767 8.5699C11.7363 8.5699 11.4571 8.84915 11.4571 9.21427C11.4571 9.66533 11.7363 9.84796 12.3807 10.1273L12.7566 10.2883C14.0347 10.8361 14.7543 11.3945 14.7543 12.6511C14.7543 14.0045 13.691 14.7455 12.2626 14.7455C10.8664 14.7455 9.96422 14.0796 9.52391 13.2096Z" fill="#323330"/>
</svg>
