<svg width="32" height="32" viewBox="0 0 32 32" fill="none" xmlns="http://www.w3.org/2000/svg">
<rect x="0.5" y="0.5" width="31" height="31" rx="15.5" fill="white"/>
<rect x="0.5" y="0.5" width="31" height="31" rx="15.5" stroke="#323330"/>
<path d="M21.4756 15.7634V8.78023H22.7313L22.762 9.9441L22.6292 9.88284C22.7654 9.48127 22.9866 9.17839 23.2929 8.97421C23.6059 8.76321 23.9701 8.65771 24.3853 8.65771C24.9025 8.65771 25.3313 8.78703 25.6716 9.04567C26.0188 9.30431 26.2774 9.64802 26.4476 10.0768C26.6177 10.5056 26.7028 10.982 26.7028 11.5061C26.7028 12.0302 26.6143 12.5066 26.4373 12.9354C26.2672 13.3642 26.0085 13.708 25.6614 13.9666C25.3211 14.2252 24.8923 14.3545 24.375 14.3545C24.1028 14.3545 23.8476 14.3069 23.6093 14.2116C23.3779 14.1163 23.1771 13.9802 23.007 13.8032C22.8436 13.6263 22.7279 13.4187 22.6599 13.1805L22.7824 13.0784V15.7634H21.4756ZM24.0688 13.2928C24.4635 13.2928 24.7732 13.1362 24.9978 12.8231C25.2292 12.5032 25.3449 12.0642 25.3449 11.5061C25.3449 10.948 25.2292 10.5124 24.9978 10.1993C24.7732 9.87944 24.4635 9.71949 24.0688 9.71949C23.8033 9.71949 23.5753 9.78755 23.3847 9.92368C23.1942 10.053 23.0444 10.2504 22.9355 10.5158C22.8334 10.7813 22.7824 11.1114 22.7824 11.5061C22.7824 11.9009 22.8334 12.231 22.9355 12.4964C23.0376 12.7619 23.184 12.9627 23.3745 13.0988C23.5719 13.2281 23.8033 13.2928 24.0688 13.2928Z" fill="black"/>
<path d="M18.4941 14.3545C19.0386 14.3545 19.5116 14.2388 19.9132 14.0074C20.3148 13.7692 20.6244 13.4357 20.8422 13.0069C21.06 12.5781 21.1689 12.0779 21.1689 11.5061C21.1689 10.9344 21.06 10.4375 20.8422 10.0156C20.6244 9.58677 20.3182 9.25326 19.9234 9.01504C19.5218 8.77682 19.0556 8.65771 18.5247 8.65771C18.0074 8.65771 17.5548 8.77342 17.1669 9.00483C16.7721 9.23625 16.4692 9.56975 16.2582 10.0054C16.0472 10.441 15.9417 10.965 15.9417 11.5776V11.8737H19.8111C19.7839 12.3501 19.6546 12.7108 19.4231 12.9559C19.1849 13.1941 18.8718 13.3132 18.4839 13.3132C18.1912 13.3132 17.9496 13.2485 17.759 13.1192C17.5616 12.9831 17.4255 12.7959 17.3506 12.5577L16.0132 12.6394C16.1629 13.1703 16.459 13.5888 16.9014 13.8951C17.337 14.2014 17.8679 14.3545 18.4941 14.3545ZM19.8111 10.9957H17.2894C17.3166 10.5533 17.4425 10.2266 17.6671 10.0156C17.8917 9.79776 18.1776 9.68886 18.5247 9.68886C18.8718 9.68886 19.1611 9.80116 19.3925 10.0258C19.6171 10.2504 19.7566 10.5737 19.8111 10.9957Z" fill="black"/>
<path d="M13.3985 14.3545C12.854 14.3545 12.381 14.2388 11.9794 14.0074C11.5778 13.7692 11.2681 13.4357 11.0503 13.0069C10.8325 12.5781 10.7236 12.0779 10.7236 11.5061C10.7236 10.9344 10.8325 10.4375 11.0503 10.0156C11.2681 9.58677 11.5744 9.25326 11.9692 9.01504C12.3707 8.77682 12.837 8.65771 13.3679 8.65771C13.8851 8.65771 14.3378 8.77342 14.7257 9.00483C15.1205 9.23625 15.4233 9.56975 15.6343 10.0054C15.8453 10.441 15.9508 10.965 15.9508 11.5776V11.8737H12.0815C12.1087 12.3501 12.238 12.7108 12.4694 12.9559C12.7077 13.1941 13.0207 13.3132 13.4087 13.3132C13.7014 13.3132 13.943 13.2485 14.1336 13.1192C14.3309 12.9831 14.4671 12.7959 14.5419 12.5577L15.8794 12.6394C15.7296 13.1703 15.4336 13.5888 14.9912 13.8951C14.5556 14.2014 14.0247 14.3545 13.3985 14.3545ZM12.0815 10.9957H14.6032C14.576 10.5533 14.4501 10.2266 14.2254 10.0156C14.0008 9.79776 13.715 9.68886 13.3679 9.68886C13.0207 9.68886 12.7315 9.80116 12.5001 10.0258C12.2755 10.2504 12.1359 10.5737 12.0815 10.9957Z" fill="black"/>
<path d="M7.45354 14.3551C6.99071 14.3551 6.58914 14.2393 6.24883 14.0079C5.91532 13.7765 5.65669 13.4464 5.47292 13.0176C5.28915 12.5888 5.19727 12.0852 5.19727 11.5066C5.19727 10.9281 5.28915 10.4244 5.47292 9.99565C5.65669 9.56686 5.91873 9.23676 6.25904 9.00534C6.59935 8.77393 6.99752 8.65822 7.45354 8.65822C7.83469 8.65822 8.16819 8.7365 8.45406 8.89304C8.74672 9.04958 8.96793 9.27079 9.11767 9.55665V6.98389H10.4245V14.2325H9.17892L9.14829 13.426C8.99856 13.7187 8.77395 13.9467 8.47447 14.11C8.175 14.2734 7.83469 14.3551 7.45354 14.3551ZM7.8517 13.2933C8.12395 13.2933 8.35196 13.2252 8.53573 13.0891C8.72631 12.953 8.86924 12.7522 8.96452 12.4867C9.06662 12.2145 9.11767 11.8878 9.11767 11.5066C9.11767 11.1187 9.06662 10.792 8.96452 10.5265C8.86924 10.2611 8.72631 10.0603 8.53573 9.92419C8.35196 9.78806 8.12395 9.72 7.8517 9.72C7.45694 9.72 7.14045 9.87995 6.90223 10.1998C6.67082 10.5129 6.55511 10.9485 6.55511 11.5066C6.55511 12.0511 6.67082 12.4867 6.90223 12.8134C7.14045 13.1333 7.45694 13.2933 7.8517 13.2933Z" fill="black"/>
<path d="M8.41526 22.3961C8.71746 22.3961 9.07683 21.8816 9.35452 21.2854H9.54238C9.24835 22.0123 8.70929 22.8372 8.04772 22.8372C7.61485 22.8372 7.46783 22.6085 7.46783 22.3145C7.46783 22.1266 7.54951 21.9306 7.66385 21.5957L7.96605 20.7055H7.8517C7.45966 21.563 6.71642 22.878 5.98951 22.878C5.50763 22.878 5.25444 22.4206 5.25444 21.7836C5.25444 20.3298 6.56941 18.3206 7.70469 18.3206C8.25191 18.3206 8.46427 18.7208 8.43976 19.2435H8.4561L9.19934 17.0383C9.35452 16.5809 9.18301 16.4175 8.61128 16.4175L8.66029 16.2297C9.58321 16.2297 9.96709 16.1725 10.1794 15.9928L10.2775 16.05L8.4316 21.6202C8.36626 21.8081 8.26825 22.0939 8.26825 22.2083C8.26825 22.3308 8.30092 22.3961 8.41526 22.3961ZM6.33255 22.29C6.81443 22.29 7.67202 20.9995 7.99055 20.0847C8.08039 19.8234 8.14573 19.562 8.14573 19.2925C8.14573 18.9413 8.04772 18.7371 7.7782 18.7371C7.05129 18.7371 6.06302 20.5258 6.06302 21.6856C6.06302 22.0694 6.13653 22.29 6.33255 22.29ZM10.6434 22.3553C11.1253 22.3553 11.5827 21.8489 11.991 21.024H12.1707C11.7133 22.1511 11.0599 22.878 10.284 22.878C9.63879 22.878 9.21408 22.4288 9.21408 21.6202C9.21408 20.2317 10.3984 18.3124 11.599 18.3124C12.0809 18.3124 12.3831 18.6146 12.3831 19.0556C12.3831 19.9704 11.2315 20.7381 10.1043 20.9096C10.0553 21.1465 10.0308 21.3752 10.0308 21.5712C10.0308 22.1021 10.2759 22.3553 10.6434 22.3553ZM11.55 18.6227C10.9701 18.6227 10.4147 19.6845 10.1697 20.6483C11.0436 20.4278 11.8195 19.758 11.8195 18.9985C11.8195 18.7616 11.7542 18.6227 11.55 18.6227ZM12.9487 22.878C12.3034 22.878 11.7562 22.486 11.7562 22.0368C11.7562 21.8162 11.9114 21.6692 12.1074 21.6692C12.2708 21.6692 12.3279 21.7754 12.4096 22.0041C12.5566 22.388 12.7445 22.584 13.0793 22.584C13.4551 22.584 13.6429 22.3063 13.6429 21.9224C13.6429 21.6121 13.4959 21.3752 13.2917 21.0893L13.0712 20.7463C12.769 20.2971 12.5893 20.0031 12.5893 19.5947C12.5893 18.8269 13.2509 18.296 14.0349 18.296C14.6883 18.296 15.0069 18.6718 15.0069 18.9494C15.0069 19.17 14.8354 19.317 14.6557 19.317C14.4842 19.317 14.4188 19.1863 14.3616 18.9903C14.28 18.7616 14.1575 18.5819 13.8389 18.5819C13.5122 18.5819 13.2672 18.8024 13.2672 19.2026C13.2672 19.4885 13.4142 19.7744 13.6347 20.0929L13.8389 20.4278C14.1493 20.9096 14.3208 21.171 14.3208 21.563C14.3208 22.3063 13.7327 22.878 12.9487 22.878ZM16.5204 17.5038C16.21 17.5038 15.9976 17.2996 15.9976 16.9974C15.9976 16.6871 16.21 16.491 16.5204 16.491C16.8307 16.491 17.0431 16.6871 17.0431 16.9974C17.0431 17.2996 16.8307 17.5038 16.5204 17.5038ZM14.7725 21.6039L15.4749 19.6274C15.5729 19.3578 15.6873 19.023 15.6873 18.9086C15.6873 18.8024 15.6464 18.7698 15.5811 18.7698C15.3361 18.7698 14.9767 19.2026 14.6663 19.7172H14.4703C14.846 18.9903 15.4586 18.3369 16.0548 18.3369C16.3488 18.3369 16.4877 18.5492 16.4877 18.7861C16.4877 18.9985 16.3815 19.2843 16.2508 19.6437L15.5403 21.6284C15.4749 21.8081 15.3687 22.0939 15.3687 22.2083C15.3687 22.3308 15.4014 22.3961 15.5158 22.3961C15.818 22.3961 16.1855 21.8816 16.455 21.2854H16.6429C16.3488 22.0123 15.818 22.8372 15.1482 22.8372C14.7153 22.8372 14.5683 22.6085 14.5683 22.3145C14.5683 22.1266 14.6582 21.9306 14.7725 21.6039ZM20.1525 18.296C20.3731 18.296 20.4792 18.3614 20.4792 18.5002C20.4792 18.6473 20.3731 18.8188 20.1525 18.8188C19.9483 18.8188 19.7687 18.6799 19.5481 18.6799C19.5073 18.6799 19.4583 18.6881 19.4093 18.7044C19.5645 18.9004 19.6543 19.17 19.6543 19.4885C19.6543 20.4686 18.9519 21.3997 18.0126 21.5059C17.4246 21.5794 17.0816 21.7019 17.0816 21.9143C17.0816 22.0858 17.2449 22.2001 17.7676 22.3798L18.5354 22.6575C19.2214 22.8944 19.4501 23.1149 19.4501 23.4987C19.4501 24.2338 18.4537 24.6504 17.2776 24.6504C15.9708 24.6504 15.203 24.1603 15.203 23.6458C15.203 23.1394 15.8401 22.878 16.7957 22.7718C16.4853 22.633 16.2811 22.4533 16.2811 22.2328C16.2811 21.7754 16.9672 21.5549 17.5144 21.4732C17.0325 21.3344 16.714 20.9015 16.714 20.3298C16.714 19.2925 17.5471 18.3124 18.5517 18.3124C18.8457 18.3124 19.1071 18.4104 19.2949 18.5737C19.5726 18.3941 19.9157 18.296 20.1525 18.296ZM17.8493 21.2363C18.4782 21.2363 18.9601 20.1664 18.9601 19.317C18.9601 18.8596 18.8294 18.5819 18.519 18.5819C17.882 18.5819 17.4001 19.6682 17.4001 20.5013C17.4001 20.9587 17.5308 21.2363 17.8493 21.2363ZM18.2168 23.2946L17.1877 22.9352C17.1551 22.9189 17.1142 22.9107 17.0816 22.8944C16.2893 23.0005 15.8238 23.2374 15.8238 23.6049C15.8238 24.0623 16.5507 24.34 17.4409 24.34C18.3312 24.34 18.7722 24.0786 18.7722 23.7438C18.7722 23.5478 18.568 23.4089 18.2168 23.2946ZM20.3628 22.7637H19.5624L20.6405 19.6274C20.7385 19.3578 20.8529 19.023 20.8529 18.9086C20.8529 18.8024 20.8121 18.7698 20.7467 18.7698C20.5017 18.7698 20.1423 19.2026 19.832 19.7172H19.6359C20.0116 18.9903 20.6242 18.3369 21.2204 18.3369C21.5145 18.3369 21.6533 18.5492 21.6533 18.7861C21.6533 18.9985 21.5308 19.2843 21.3919 19.6355L20.9101 20.9423H20.9917C21.8493 19.1373 22.4701 18.3206 23.1316 18.3206C23.5073 18.3206 23.7115 18.5656 23.7115 18.9168C23.7115 19.513 23.1153 20.6891 22.7151 21.6284C22.6497 21.8162 22.5272 22.0939 22.5272 22.2083C22.5272 22.3308 22.5599 22.3961 22.6742 22.3961C22.9764 22.3961 23.344 21.8816 23.6135 21.2854H23.8095C23.5073 22.0123 22.9764 22.8372 22.3067 22.8372C21.882 22.8372 21.735 22.6085 21.735 22.3145C21.735 22.1266 21.8412 21.9388 21.9718 21.5957C22.4129 20.5013 22.8621 19.4885 22.8621 19.1618C22.8621 18.9821 22.8131 18.9004 22.6906 18.9004C22.372 18.9004 21.5635 19.7009 20.3628 22.7637ZM24.4843 22.878C23.8391 22.878 23.2918 22.486 23.2918 22.0368C23.2918 21.8162 23.447 21.6692 23.6431 21.6692C23.8064 21.6692 23.8636 21.7754 23.9452 22.0041C24.0923 22.388 24.2801 22.584 24.615 22.584C24.9907 22.584 25.1785 22.3063 25.1785 21.9224C25.1785 21.6121 25.0315 21.3752 24.8273 21.0893L24.6068 20.7463C24.3046 20.2971 24.1249 20.0031 24.1249 19.5947C24.1249 18.8269 24.7865 18.296 25.5706 18.296C26.224 18.296 26.5425 18.6718 26.5425 18.9494C26.5425 19.17 26.371 19.317 26.1913 19.317C26.0198 19.317 25.9545 19.1863 25.8973 18.9903C25.8156 18.7616 25.6931 18.5819 25.3746 18.5819C25.0479 18.5819 24.8028 18.8024 24.8028 19.2026C24.8028 19.4885 24.9499 19.7744 25.1704 20.0929L25.3746 20.4278C25.6849 20.9096 25.8564 21.171 25.8564 21.563C25.8564 22.3063 25.2684 22.878 24.4843 22.878Z" fill="black"/>
</svg>
