<svg width="19" height="19" viewBox="0 0 19 19" fill="none" xmlns="http://www.w3.org/2000/svg">
<path d="M9.5 0.125C4.32236 0.125 0.125 4.32244 0.125 9.5C0.125 14.6779 4.32244 18.875 9.5 18.875C14.678 18.875 18.875 14.6779 18.875 9.5C18.875 4.3228 14.6781 0.125 9.5 0.125ZM13.7992 13.6465C13.6313 13.9219 13.2708 14.0092 12.9954 13.8402C10.7943 12.4957 8.02336 12.1911 4.76006 12.9367C4.60894 12.9712 4.45035 12.9441 4.31915 12.8616C4.18796 12.7791 4.0949 12.6479 4.06045 12.4968C4.04329 12.422 4.04106 12.3445 4.05386 12.2689C4.06667 12.1932 4.09427 12.1208 4.13509 12.0558C4.17591 11.9908 4.22914 11.9345 4.29174 11.8901C4.35433 11.8457 4.42507 11.8141 4.4999 11.7971C8.07119 10.9812 11.1344 11.3324 13.6056 12.8427C13.881 13.0117 13.9683 13.3711 13.7992 13.6465ZM14.9467 11.0938C14.7351 11.4377 14.2851 11.5463 13.9414 11.3347C11.4214 9.78579 7.5801 9.33718 4.59951 10.2419C4.21294 10.3587 3.80469 10.1409 3.68735 9.75496C3.5709 9.36838 3.78887 8.96086 4.17478 8.84338C7.57944 7.81023 11.8121 8.31069 14.7061 10.089C15.0497 10.3007 15.1583 10.7506 14.9467 11.0938ZM15.0452 8.43565C12.0237 6.64092 7.03862 6.47583 4.15383 7.35151C3.69058 7.49199 3.20066 7.23044 3.06033 6.76719C2.91992 6.30371 3.18118 5.81416 3.6448 5.67332C6.9563 4.66799 12.4615 4.8623 15.9401 6.92744C16.3577 7.17471 16.4943 7.71289 16.2469 8.12898C16.0006 8.54573 15.4605 8.68306 15.0452 8.43565Z" fill="#1ED760"/>
<path d="M13.7992 13.6465C13.6313 13.9219 13.2708 14.0092 12.9954 13.8402C10.7943 12.4957 8.02336 12.1911 4.76006 12.9367C4.60894 12.9712 4.45035 12.9441 4.31915 12.8616C4.18796 12.7791 4.0949 12.6479 4.06045 12.4968C4.04329 12.422 4.04106 12.3445 4.05386 12.2689C4.06667 12.1932 4.09427 12.1208 4.13509 12.0558C4.17591 11.9908 4.22914 11.9345 4.29174 11.8901C4.35433 11.8457 4.42507 11.8141 4.4999 11.7971C8.07119 10.9812 11.1344 11.3324 13.6056 12.8427C13.881 13.0117 13.9683 13.3711 13.7992 13.6465Z" fill="#1E1E1E"/>
<path d="M14.9467 11.0938C14.7351 11.4377 14.2851 11.5463 13.9414 11.3347C11.4214 9.78579 7.5801 9.33718 4.59951 10.2419C4.21294 10.3587 3.80469 10.1409 3.68735 9.75496C3.5709 9.36838 3.78887 8.96086 4.17478 8.84338C7.57944 7.81023 11.8121 8.31069 14.7061 10.089C15.0497 10.3007 15.1583 10.7506 14.9467 11.0938Z" fill="#1E1E1E"/>
<path d="M15.0452 8.43565C12.0237 6.64092 7.03862 6.47583 4.15383 7.35151C3.69058 7.49199 3.20066 7.23044 3.06033 6.76719C2.91992 6.30371 3.18118 5.81416 3.6448 5.67332C6.9563 4.66799 12.4615 4.8623 15.9401 6.92744C16.3577 7.17471 16.4943 7.71289 16.2469 8.12898C16.0006 8.54573 15.4605 8.68306 15.0452 8.43565Z" fill="#1E1E1E"/>
</svg>
