<svg width="24" height="24" viewBox="0 0 24 24" fill="none" xmlns="http://www.w3.org/2000/svg">
<path d="M12.0011 5.19604C8.97707 5.19604 7.08772 6.70745 6.33113 9.73151C7.46478 8.21993 8.78819 7.6531 10.2998 8.03105C11.1629 8.24615 11.7796 8.87198 12.4627 9.56549C13.5744 10.6936 14.8611 11.9997 17.6711 11.9997C20.695 11.9997 22.5845 10.4881 23.3411 7.46334C22.2071 8.97569 20.8842 9.54281 19.3723 9.16469C18.5094 8.94941 17.8933 8.32376 17.2094 7.63025C16.0984 6.50209 14.812 5.19604 12.0011 5.19604ZM6.33113 11.9997C3.30725 11.9997 1.41772 13.5113 0.661133 16.536C1.79501 15.0237 3.1179 14.4566 4.62978 14.8347C5.49286 15.05 6.10965 15.6756 6.79271 16.3691C7.90438 17.4973 9.19112 18.8033 12.0011 18.8033C15.025 18.8033 16.9145 17.2919 17.6711 14.2679C16.5371 15.7795 15.2142 16.3463 13.7023 15.9683C12.8394 15.7532 12.2233 15.1274 11.5394 14.4339C10.4284 13.3057 9.14204 11.9997 6.33113 11.9997Z" fill="#38BDF8"/>
</svg>
