<svg width="20" height="15" viewBox="0 0 20 15" fill="none" xmlns="http://www.w3.org/2000/svg">
<path d="M19.1759 2.85562C19.0657 2.44864 18.8509 2.07761 18.5528 1.77947C18.2547 1.48133 17.8836 1.2665 17.4767 1.15635C15.9867 0.75 9.99017 0.75 9.99017 0.75C9.99017 0.75 3.99332 0.7623 2.50337 1.16865C2.09638 1.2788 1.72535 1.49365 1.42722 1.7918C1.1291 2.08995 0.914283 2.461 0.804167 2.868C0.353492 5.51535 0.178667 9.5493 0.816542 12.0907C0.92667 12.4977 1.14149 12.8688 1.43962 13.1669C1.73774 13.465 2.10876 13.6799 2.51574 13.79C4.00569 14.1964 10.0024 14.1964 10.0024 14.1964C10.0024 14.1964 15.999 14.1964 17.4889 13.79C17.8959 13.6799 18.2669 13.4651 18.5651 13.1669C18.8632 12.8688 19.078 12.4977 19.1882 12.0907C19.6635 9.43965 19.81 5.40817 19.1759 2.85562Z" fill="#FF0000"/>
<path d="M8.08154 10.3545L13.0561 7.47315L8.08154 4.5918V10.3545Z" fill="white"/>
</svg>
